# Blender 3.3.1
# www.blender.org
mtllib diamante.mtl
o Circle
v 3.893389 0.090820 -0.037699
v 3.893389 1.516692 -1.037699
v 3.186282 1.516692 -0.744806
v 2.893389 1.516692 -0.037699
v 3.186282 1.516692 0.669408
v 3.893389 1.516692 0.962301
v 4.600495 1.516692 0.669408
v 4.893389 1.516692 -0.037699
v 4.600495 1.516692 -0.744806
v 3.893389 1.902747 -0.771252
v 3.374688 1.902747 -0.556399
v 3.159836 1.902747 -0.037699
v 3.374688 1.902747 0.481001
v 3.893389 1.902747 0.695854
v 4.412089 1.902747 0.481001
v 4.626942 1.902747 -0.037699
v 4.412089 1.902747 -0.556399
v 3.824326 2.042554 -0.053680
vn -0.7754 0.5438 0.3212
vn -0.3212 0.5438 -0.7753
vn 0.7754 0.5438 -0.3212
vn 0.3212 0.5438 0.7753
vn -0.3212 0.5438 0.7753
vn -0.7754 0.5438 -0.3212
vn 0.3212 0.5438 -0.7753
vn 0.7754 0.5438 0.3212
vn 0.3227 -0.5376 0.7790
vn -0.3227 -0.5376 0.7790
vn -0.7790 -0.5376 -0.3227
vn 0.3227 -0.5376 -0.7790
vn 0.7790 -0.5376 0.3227
vn -0.7790 -0.5376 0.3227
vn -0.3227 -0.5376 -0.7790
vn 0.7790 -0.5376 -0.3227
vn -0.1725 -0.9824 0.0715
vn -0.0731 -0.9816 -0.1764
vn 0.2032 -0.9755 -0.0842
vn 0.0821 -0.9767 0.1982
vn -0.0761 -0.9800 0.1836
vn -0.1698 -0.9830 -0.0703
vn 0.0786 -0.9787 -0.1898
vn 0.2071 -0.9746 0.0858
vt 0.312657 0.140196
vt 0.311946 0.212188
vt 0.276244 0.211835
vt 0.261456 0.211689
vt 0.276244 0.211835
vt 0.311946 0.212188
vt 0.347648 0.212541
vt 0.362436 0.212687
vt 0.347648 0.212541
vt 0.311753 0.231680
vt 0.285564 0.231421
vt 0.274717 0.231314
vt 0.285564 0.231421
vt 0.311753 0.231680
vt 0.337942 0.231939
vt 0.348790 0.232046
vt 0.337942 0.231939
vt 0.308197 0.238704
s 0
usemtl Material.001
f 1/1/1 8/8/1 9/9/1
f 1/1/2 6/6/2 7/7/2
f 1/1/3 4/4/3 5/5/3
f 1/1/4 2/2/4 3/3/4
f 1/1/5 9/9/5 2/2/5
f 1/1/6 7/7/6 8/8/6
f 1/1/7 5/5/7 6/6/7
f 1/1/8 3/3/8 4/4/8
f 3/3/9 2/2/9 10/10/9 11/11/9
f 2/2/10 9/9/10 17/17/10 10/10/10
f 8/8/11 7/7/11 15/15/11 16/16/11
f 6/6/12 5/5/12 13/13/12 14/14/12
f 4/4/13 3/3/13 11/11/13 12/12/13
f 9/9/14 8/8/14 16/16/14 17/17/14
f 7/7/15 6/6/15 14/14/15 15/15/15
f 5/5/16 4/4/16 12/12/16 13/13/16
f 17/17/17 16/16/17 18/18/17
f 15/15/18 14/14/18 18/18/18
f 13/13/19 12/12/19 18/18/19
f 11/11/20 10/10/20 18/18/20
f 10/10/21 17/17/21 18/18/21
f 16/16/22 15/15/22 18/18/22
f 14/14/23 13/13/23 18/18/23
f 12/12/24 11/11/24 18/18/24
3/3/8 4/4/8
f 3/3/9 2/2/9 10/10/9 11/11/9
f 2/2/10 9/9/10 17/17/10 10/10/10
f 8/8/11 7/7/11 15/15/11 16/16/11
f 6/6/12 5/5/12 13/13/12 14/14/12
f 4/4/13 3/3/13 11/11/13 12/12/13
f 9/9/14 8/8/14 16/16/14 17/17/14
f 7/7/15 6/6/15 14/14/15 15/15/15
f 5/5/16 4/4/16 12/12/16 13/13/16
f 17/